<?xml version="1.0" standalone="no"?>
<!DOCTYPE svg PUBLIC "-//W3C//DTD SVG 20010904//EN"
 "http://www.w3.org/TR/2001/REC-SVG-20010904/DTD/svg10.dtd">
<svg version="1.0" xmlns="http://www.w3.org/2000/svg"
 width="101.000000pt" height="85.000000pt" viewBox="0 0 101.000000 85.000000"
 preserveAspectRatio="xMidYMid meet">

<g transform="translate(0.000000,85.000000) scale(0.100000,-0.100000)"
fill="#000000" stroke="none">
<path d="M542 727 c-48 -18 -102 -65 -118 -103 -17 -41 -18 -114 -2 -149 8
-19 8 -34 0 -62 -6 -20 -10 -39 -7 -41 2 -2 20 1 40 8 30 10 43 9 76 -4 22 -9
55 -16 74 -16 20 0 53 -12 84 -31 46 -29 55 -31 103 -24 29 4 72 7 96 7 39 0
42 2 36 22 -4 11 -6 26 -5 31 16 95 5 139 -43 170 -13 9 -27 30 -30 48 -23
117 -177 190 -304 144z m183 -25 c69 -34 105 -86 105 -154 0 -132 -173 -218
-303 -151 -18 9 -40 12 -59 8 -29 -7 -30 -6 -24 22 4 18 0 44 -9 68 -19 45
-13 93 16 142 49 79 182 111 274 65z m170 -208 c18 -27 20 -59 10 -119 -6 -34
-11 -40 -33 -42 -15 -2 -50 -5 -78 -9 -38 -4 -60 -1 -84 11 l-33 17 47 23 c62
30 91 58 113 110 19 46 32 48 58 9z"/>
<path d="M714 556 c-8 -22 3 -33 18 -18 9 9 9 15 0 24 -9 9 -13 7 -18 -6z"/>
<path d="M522 548 c6 -18 28 -21 28 -4 0 9 -7 16 -16 16 -9 0 -14 -5 -12 -12z"/>
<path d="M615 551 c-3 -5 -1 -12 5 -16 12 -7 30 2 30 16 0 12 -27 12 -35 0z"/>
<path d="M189 452 c-2 -5 -26 -13 -53 -16 -27 -4 -53 -9 -58 -12 -13 -8 -10
-138 4 -152 14 -14 205 -17 227 -3 18 11 16 151 -2 163 -7 4 -30 8 -52 8 -23
0 -46 5 -52 11 -7 7 -12 7 -14 1z m106 -102 l0 -65 -100 0 -100 0 -3 62 -3 62
38 4 c21 2 67 4 103 3 l65 -1 0 -65z"/>
<path d="M125 361 c-9 -16 3 -31 26 -31 14 0 19 6 17 17 -4 20 -33 29 -43 14z"/>
<path d="M230 350 c0 -13 7 -20 20 -20 13 0 20 7 20 20 0 13 -7 20 -20 20 -13
0 -20 -7 -20 -20z"/>
<path d="M665 267 c-60 -22 -74 -39 -36 -45 30 -5 162 39 158 52 -6 19 -59 16
-122 -7z"/>
<path d="M63 210 c-19 -8 -23 -17 -23 -50 0 -47 30 -85 77 -96 15 -4 38 -14
51 -22 15 -10 37 -13 67 -9 82 9 157 108 126 166 -11 20 -19 21 -144 20 -73 0
-142 -4 -154 -9z m103 -18 c6 -4 13 -15 17 -24 10 -27 63 -23 93 7 27 27 59
33 67 12 18 -47 -33 -108 -72 -88 -30 16 -92 13 -112 -5 -16 -14 -23 -15 -49
-4 -35 14 -50 37 -50 74 0 19 6 26 28 29 47 7 67 7 78 -1z"/>
</g>
</svg>
