<?xml version="1.0" standalone="no"?>
<!DOCTYPE svg PUBLIC "-//W3C//DTD SVG 20010904//EN"
 "http://www.w3.org/TR/2001/REC-SVG-20010904/DTD/svg10.dtd">
<svg version="1.0" xmlns="http://www.w3.org/2000/svg"
 width="75.000000pt" height="92.000000pt" viewBox="0 0 75.000000 92.000000"
 preserveAspectRatio="xMidYMid meet">

<g transform="translate(0.000000,92.000000) scale(0.100000,-0.100000)"
fill="#000000" stroke="none">
<path d="M209 833 c-7 -57 -5 -261 3 -270 6 -8 34 -13 66 -13 51 0 60 -3 94
-37 l38 -37 38 37 c34 33 43 37 92 37 30 0 61 4 68 8 9 7 12 42 10 143 l-3
134 -202 3 c-112 1 -203 -1 -204 -5z m376 -134 l0 -114 -55 -3 c-46 -3 -60 -8
-87 -35 l-33 -31 -32 31 c-28 27 -42 32 -88 35 l-55 3 -3 112 -3 112 28 3 c15
2 96 3 178 2 l150 0 0 -115z"/>
<path d="M377 772 c-21 -23 -21 -32 -2 -32 8 0 15 5 15 10 0 6 9 10 20 10 23
0 27 -27 6 -44 -22 -18 -30 -56 -12 -56 9 0 16 6 16 13 0 8 9 22 20 32 25 23
26 47 2 68 -24 22 -45 21 -65 -1z"/>
<path d="M396 631 c-4 -5 -2 -12 3 -15 5 -4 12 -2 15 3 4 5 2 12 -3 15 -5 4
-12 2 -15 -3z"/>
<path d="M648 645 c-3 -3 1 -22 8 -43 21 -58 16 -112 -16 -210 -16 -50 -33
-128 -37 -174 l-8 -82 -140 -28 c-77 -16 -147 -27 -155 -26 -10 2 -17 19 -20
53 l-5 50 -54 5 c-62 6 -63 7 -76 119 -6 48 -12 64 -29 73 -11 6 -23 12 -25
14 -2 2 13 22 33 44 30 33 36 47 36 84 0 25 5 57 10 72 7 18 7 31 1 37 -15 15
-41 -52 -41 -103 0 -32 -7 -48 -35 -79 -41 -45 -44 -66 -13 -82 13 -6 24 -12
25 -13 1 -1 7 -35 13 -76 16 -102 29 -120 85 -120 41 0 45 -2 45 -24 0 -13 3
-38 6 -55 8 -40 14 -39 214 2 l155 32 7 91 c5 60 18 124 38 185 26 77 31 104
26 150 -7 77 -29 123 -48 104z"/>
</g>
</svg>
