<?xml version="1.0" standalone="no"?>
<!DOCTYPE svg PUBLIC "-//W3C//DTD SVG 20010904//EN"
 "http://www.w3.org/TR/2001/REC-SVG-20010904/DTD/svg10.dtd">
<svg version="1.0" xmlns="http://www.w3.org/2000/svg"
 width="72.000000pt" height="72.000000pt" viewBox="0 0 72.000000 72.000000"
 preserveAspectRatio="xMidYMid meet">

<g transform="translate(0.000000,72.000000) scale(0.100000,-0.100000)"
fill="#000000" stroke="none">
<path d="M285 631 c-98 -26 -185 -108 -211 -199 -52 -179 67 -355 251 -370 68
-5 135 4 135 17 0 5 -19 5 -42 -1 -155 -35 -316 81 -335 241 -19 163 132 315
298 299 26 -3 72 -17 103 -32 171 -84 198 -310 53 -444 -26 -23 -40 -42 -32
-42 26 0 97 73 121 125 33 70 33 170 0 241 -47 101 -139 164 -249 170 -34 2
-75 0 -92 -5z"/>
<path d="M306 538 c-9 -12 -16 -31 -16 -41 0 -14 -5 -17 -17 -12 -42 16 -79
17 -92 2 -30 -37 6 -82 70 -89 13 -2 27 -7 31 -13 5 -6 8 -5 8 3 0 7 -22 22
-50 34 -48 20 -62 39 -40 53 6 4 45 -6 86 -21 l75 -27 65 26 c74 31 90 33 97
13 7 -18 -6 -29 -65 -51 -45 -17 -48 -20 -48 -54 0 -20 12 -71 27 -113 21 -58
25 -80 16 -89 -18 -18 -30 -3 -54 62 -12 33 -26 62 -31 65 -16 10 -38 -18 -55
-73 -18 -56 -36 -74 -55 -55 -8 8 -3 31 16 82 26 71 33 110 19 110 -12 0 -64
-176 -57 -194 9 -24 43 -30 64 -11 10 9 27 39 36 66 l18 50 31 -63 c31 -64 53
-80 80 -58 20 17 19 46 -5 115 -11 32 -20 75 -20 95 0 34 3 38 40 50 57 19 76
43 61 76 -10 22 -16 25 -44 21 -17 -3 -42 -8 -54 -12 -20 -6 -23 -4 -23 18 0
35 -25 57 -65 57 -24 0 -39 -7 -49 -22z m84 -13 c16 -19 9 -45 -17 -62 -19
-13 -24 -12 -42 6 -25 25 -26 35 -5 55 19 20 48 20 64 1z"/>
</g>
</svg>
