<?xml version="1.0" standalone="no"?>
<!DOCTYPE svg PUBLIC "-//W3C//DTD SVG 20010904//EN"
 "http://www.w3.org/TR/2001/REC-SVG-20010904/DTD/svg10.dtd">
<svg version="1.0" xmlns="http://www.w3.org/2000/svg"
 width="30.000000pt" height="30.000000pt" viewBox="0 0 30.000000 30.000000"
 preserveAspectRatio="xMidYMid meet">

<g transform="translate(0.000000,30.000000) scale(0.100000,-0.100000)"
fill="#000000" stroke="none">
<path d="M84 261 c-31 -14 -64 -60 -64 -90 0 -15 7 -37 17 -50 13 -19 14 -28
4 -42 -13 -22 -3 -24 34 -7 14 6 25 20 25 30 0 47 37 78 105 87 l39 6 -29 33
c-32 36 -90 50 -131 33z"/>
<path d="M145 145 c-14 -13 -25 -33 -25 -45 0 -33 44 -70 82 -70 18 0 44 -3
58 -7 22 -6 23 -5 12 10 -10 12 -11 21 -3 36 17 30 13 50 -14 76 -32 33 -78
33 -110 0z"/>
</g>
</svg>
