<?xml version="1.0" standalone="no"?>
<!DOCTYPE svg PUBLIC "-//W3C//DTD SVG 20010904//EN"
 "http://www.w3.org/TR/2001/REC-SVG-20010904/DTD/svg10.dtd">
<svg version="1.0" xmlns="http://www.w3.org/2000/svg"
 width="75.000000pt" height="92.000000pt" viewBox="0 0 75.000000 92.000000"
 preserveAspectRatio="xMidYMid meet">

<g transform="translate(0.000000,92.000000) scale(0.100000,-0.100000)"
fill="#000000" stroke="none">
<path d="M319 819 c-69 -41 -79 -75 -79 -256 0 -149 1 -162 23 -193 49 -72
115 -95 193 -65 32 12 53 29 72 58 27 40 27 43 27 201 0 134 -3 166 -17 193
-42 75 -147 105 -219 62z m163 -36 c42 -37 48 -66 48 -213 0 -161 -10 -198
-62 -230 -64 -39 -158 -15 -189 50 -15 30 -24 218 -15 293 4 31 16 64 29 80
44 55 140 65 189 20z"/>
<path d="M126 403 c27 -117 113 -203 219 -220 34 -5 34 -6 37 -61 4 -80 28
-83 28 -3 0 60 0 61 28 61 43 0 128 47 166 92 46 53 85 166 55 156 -6 -2 -19
-28 -29 -58 -39 -114 -163 -186 -280 -162 -96 20 -168 88 -193 180 -12 47 -42
61 -31 15z"/>
</g>
</svg>
