<?xml version="1.0" standalone="no"?>
<!DOCTYPE svg PUBLIC "-//W3C//DTD SVG 20010904//EN"
 "http://www.w3.org/TR/2001/REC-SVG-20010904/DTD/svg10.dtd">
<svg version="1.0" xmlns="http://www.w3.org/2000/svg"
 width="75.000000pt" height="92.000000pt" viewBox="0 0 75.000000 92.000000"
 preserveAspectRatio="xMidYMid meet">

<g transform="translate(0.000000,92.000000) scale(0.100000,-0.100000)"
fill="#000000" stroke="none">
<path d="M230 732 l-21 -17 32 0 c32 0 34 -3 65 -76 l32 -77 -29 -43 c-16 -24
-29 -54 -29 -65 0 -28 80 -118 119 -134 27 -11 34 -9 76 20 44 31 49 32 84 20
20 -7 56 -22 81 -34 37 -18 45 -26 42 -46 -4 -37 -33 -72 -77 -94 -33 -17 -46
-18 -106 -9 -127 20 -228 84 -295 188 -59 93 -81 222 -49 285 13 25 13 30 2
30 -40 0 -49 -134 -16 -232 51 -151 182 -263 341 -290 87 -15 134 -5 179 41
38 37 61 104 43 121 -15 14 -155 70 -176 70 -11 0 -39 -13 -62 -29 -43 -30
-43 -30 -73 -12 -31 20 -93 89 -93 105 0 5 14 31 31 58 l31 49 -37 89 c-31 74
-49 100 -70 100 -1 0 -13 -8 -25 -18z"/>
<path d="M490 712 c0 -5 14 -15 32 -21 53 -19 95 -58 123 -116 30 -60 54 -66
30 -8 -22 51 -59 97 -97 121 -41 25 -88 38 -88 24z"/>
<path d="M465 620 c-3 -5 12 -18 33 -29 22 -11 46 -35 57 -55 19 -36 35 -47
35 -25 0 46 -107 139 -125 109z"/>
</g>
</svg>
