<?xml version="1.0" standalone="no"?>
<!DOCTYPE svg PUBLIC "-//W3C//DTD SVG 20010904//EN"
 "http://www.w3.org/TR/2001/REC-SVG-20010904/DTD/svg10.dtd">
<svg version="1.0" xmlns="http://www.w3.org/2000/svg"
 width="64.000000pt" height="64.000000pt" viewBox="0 0 64.000000 64.000000"
 preserveAspectRatio="xMidYMid meet">

<g transform="translate(0.000000,64.000000) scale(0.100000,-0.100000)"
fill="#000000" stroke="none">
<path d="M240 497 c-35 -18 -58 -62 -44 -84 17 -28 44 -27 74 2 36 34 74 31
78 -5 2 -20 -6 -33 -38 -59 -35 -28 -41 -38 -38 -64 2 -24 8 -33 25 -35 32 -5
153 116 153 152 0 39 -21 76 -51 92 -34 17 -125 18 -159 1z"/>
<path d="M276 204 c-33 -32 -13 -74 36 -74 40 0 59 41 33 70 -22 24 -48 26
-69 4z"/>
</g>
</svg>
