<?xml version="1.0" standalone="no"?>
<!DOCTYPE svg PUBLIC "-//W3C//DTD SVG 20010904//EN"
 "http://www.w3.org/TR/2001/REC-SVG-20010904/DTD/svg10.dtd">
<svg version="1.0" xmlns="http://www.w3.org/2000/svg"
 width="285.000000pt" height="225.000000pt" viewBox="0 0 285.000000 225.000000"
 preserveAspectRatio="xMidYMid meet">

<g transform="translate(0.000000,225.000000) scale(0.100000,-0.100000)"
fill="#000000" stroke="none">
<path d="M472 2033 c-23 -44 -113 -339 -110 -362 2 -18 15 -32 42 -47 87 -49
126 -107 126 -189 0 -140 -127 -236 -266 -202 -23 6 -36 4 -48 -8 -22 -22
-129 -360 -121 -384 7 -23 7 -23 265 -106 113 -37 306 -100 430 -140 214 -70
1275 -414 1465 -476 50 -16 95 -29 101 -29 24 0 45 43 101 214 66 202 69 176
-30 237 -84 52 -119 165 -78 254 41 89 118 131 222 121 51 -5 68 -4 78 8 16
19 121 334 121 363 0 12 -10 29 -22 37 -13 8 -192 69 -398 136 -206 67 -559
182 -785 255 -916 298 -1033 335 -1058 335 -15 0 -30 -8 -35 -17z m777 -319
c383 -125 740 -240 794 -257 111 -35 105 -25 73 -130 -14 -45 -14 -49 4 -67
41 -41 72 -17 97 71 9 32 20 59 25 59 9 0 411 -131 416 -135 2 -2 -13 -55 -34
-118 l-38 -115 -61 -4 c-169 -14 -288 -138 -289 -303 -1 -103 43 -194 122
-249 l40 -27 -40 -119 -39 -118 -42 13 c-23 8 -114 37 -202 66 -88 28 -164 55
-169 59 -4 5 2 38 14 74 25 77 17 106 -30 106 -34 0 -38 -6 -66 -85 -17 -48
-25 -59 -40 -57 -18 4 -211 65 -584 187 -96 31 -359 117 -585 190 -299 97
-409 137 -407 148 1 7 17 61 35 118 l33 104 69 6 c173 14 294 151 282 320 -5
86 -37 148 -106 211 l-54 49 37 114 c20 63 40 115 43 115 4 0 320 -102 702
-226z"/>
<path d="M958 1580 c-12 -37 -13 -52 -4 -59 14 -12 778 -261 800 -261 18 0 46
55 46 90 0 12 -10 24 -22 30 -58 24 -767 250 -784 250 -15 0 -24 -12 -36 -50z"/>
<path d="M908 1403 c-8 -10 -36 -85 -62 -166 -44 -139 -46 -150 -32 -172 13
-20 83 -46 385 -144 203 -67 378 -121 388 -121 34 0 49 30 98 184 43 136 47
152 34 174 -12 21 -68 42 -379 143 -201 65 -377 119 -391 119 -14 0 -33 -8
-41 -17z"/>
<path d="M2072 1163 c-22 -19 -76 -180 -70 -209 4 -24 31 -38 59 -31 21 5 30
22 59 113 l35 106 -24 19 c-29 23 -34 23 -59 2z"/>
<path d="M747 933 c-3 -16 -8 -35 -12 -44 -5 -13 4 -20 41 -33 65 -22 70 -21
83 15 17 50 14 56 -36 73 -63 22 -70 20 -76 -11z"/>
<path d="M980 845 c-7 -25 -11 -47 -9 -49 13 -11 104 -35 110 -29 13 15 29 77
22 84 -6 5 -100 39 -108 39 -2 0 -8 -20 -15 -45z"/>
<path d="M1956 828 c-8 -13 -27 -63 -42 -111 l-27 -89 21 -20 c14 -15 27 -19
45 -14 22 5 30 20 56 99 17 50 31 101 31 113 0 45 -59 61 -84 22z"/>
<path d="M1220 784 c-23 -59 -19 -66 40 -85 61 -19 64 -17 75 42 6 35 6 36
-35 48 -23 7 -48 15 -56 18 -9 3 -18 -5 -24 -23z"/>
<path d="M1452 692 c-7 -22 -12 -42 -12 -45 0 -5 87 -37 101 -37 8 0 29 55 29
77 0 14 -33 30 -81 40 -22 4 -27 0 -37 -35z"/>
</g>
</svg>
